<?xml version="1.0" standalone="no"?>
<!DOCTYPE svg PUBLIC "-//W3C//DTD SVG 20010904//EN"
 "http://www.w3.org/TR/2001/REC-SVG-20010904/DTD/svg10.dtd">
<svg version="1.0" xmlns="http://www.w3.org/2000/svg"
 width="241.000000pt" height="241.000000pt" viewBox="0 0 241.000000 241.000000"
 preserveAspectRatio="xMidYMid meet">
<metadata>
Created by potrace 1.11, written by Peter Selinger 2001-2013
</metadata>
<g transform="translate(0.000000,241.000000) scale(0.100000,-0.100000)"
fill="#000000" stroke="none">
<path d="M1179 2188 c-1 -100 -12 -189 -26 -211 -2 -4 -40 38 -84 94 -43 56
-79 98 -79 95 0 -6 29 -59 63 -113 40 -64 41 -69 13 -40 -22 24 -29 27 -42 16
-12 -10 -22 -6 -57 21 -63 50 -77 56 -33 16 39 -36 35 -49 -7 -22 -19 13 -25
13 -41 0 -19 -14 -19 -14 2 -14 12 0 22 -4 22 -10 0 -14 -16 -12 -49 5 -27 14
-29 13 -24 -4 3 -11 1 -26 -4 -35 -7 -13 -12 -14 -34 -2 -13 7 -30 11 -37 8
-6 -2 -12 0 -12 6 0 11 -32 12 -47 0 -6 -5 -23 -6 -37 -2 -16 4 -26 2 -26 -5
0 -6 -6 -11 -13 -11 -31 0 -48 -37 -50 -107 -1 -37 -6 -71 -12 -75 -6 -5 -6
-17 1 -37 9 -22 9 -33 0 -42 -8 -9 -7 -10 8 -5 15 5 17 2 12 -18 -5 -20 -1
-25 22 -31 l27 -7 -27 -14 c-17 -9 -28 -23 -28 -36 0 -17 2 -18 15 -8 19 16
19 3 0 -30 -19 -33 -19 -60 0 -60 11 0 13 -6 7 -22 -12 -36 -8 -93 7 -90 9 2
9 -3 1 -19 -15 -27 -6 -36 17 -18 16 13 17 12 4 -4 -12 -15 -12 -19 5 -32 15
-11 17 -16 7 -26 -11 -11 -13 -10 -13 4 0 24 -17 21 -25 -4 -4 -12 -15 -29
-26 -40 -12 -12 -16 -25 -11 -38 4 -11 10 -19 13 -18 4 1 16 -6 28 -17 12 -11
29 -16 41 -13 11 3 20 0 20 -6 0 -7 -15 -13 -34 -14 -25 -1 -36 3 -39 15 -3 9
-5 2 -6 -15 -1 -36 -11 -41 -35 -18 -8 8 -17 15 -19 15 -10 0 6 -45 18 -52 7
-4 10 -18 8 -31 -3 -14 2 -31 11 -40 19 -19 20 -38 4 -56 -11 -11 -9 -12 10
-6 16 5 22 2 22 -10 0 -10 7 -15 18 -13 13 2 17 -5 18 -32 3 -56 3 -60 13 -60
5 0 13 9 16 21 5 16 12 19 35 14 27 -6 29 -5 25 24 -2 17 0 33 6 36 5 4 9 -3
9 -13 0 -11 11 -27 25 -36 23 -15 25 -15 25 0 0 10 3 14 7 10 8 -8 9 -13 12
-42 0 -8 6 -12 11 -9 6 3 10 -2 10 -12 0 -15 2 -15 10 -3 7 12 13 9 35 -14 26
-28 28 -49 3 -29 -25 20 -113 43 -170 44 -60 2 -108 -18 -108 -46 0 -7 20 -35
45 -62 24 -26 45 -53 45 -60 0 -18 28 -30 88 -38 45 -6 51 -5 46 9 -4 10 -1
16 7 16 25 1 -36 29 -62 30 -15 0 -29 7 -33 15 -11 30 38 22 138 -21 44 -19
90 -34 102 -34 23 0 49 19 56 42 7 20 278 16 292 -4 32 -43 75 -43 167 -3 63
28 161 46 143 26 -5 -6 -34 -19 -64 -29 -52 -16 -79 -42 -45 -42 9 0 13 -5 9
-11 -5 -9 7 -10 42 -4 64 9 67 11 135 91 63 75 64 85 2 111 -42 17 -100 17
-152 -2 -35 -12 -41 -12 -41 0 0 7 8 16 18 19 14 5 18 14 15 39 -3 28 -2 29 7
9 5 -12 14 -22 20 -22 6 0 9 4 6 9 -10 15 5 40 20 34 9 -3 14 2 14 17 0 14 4
19 12 14 7 -5 9 -2 5 9 -4 11 -2 14 8 11 12 -5 12 -11 -1 -42 -9 -21 -18 -43
-21 -50 -4 -10 1 -10 22 -2 17 7 32 7 45 0 28 -15 30 -13 31 33 0 23 3 36 6
29 6 -16 33 3 33 23 0 7 7 15 15 19 9 3 15 18 15 37 0 27 2 30 15 19 12 -10
15 -9 15 8 0 11 -7 25 -15 32 -14 11 -13 14 5 27 27 19 27 47 0 40 -19 -5 -25
6 -21 38 1 6 -5 2 -13 -9 -10 -12 -21 -16 -32 -12 -15 6 -15 9 6 31 12 13 28
21 35 19 19 -8 25 20 9 47 -7 13 -17 32 -20 42 -3 9 -13 17 -21 17 -8 0 -12
-4 -8 -9 12 -20 -16 -21 -40 -2 -15 11 -21 22 -15 26 14 9 30 -3 30 -23 1 -16
1 -16 11 1 5 9 17 17 26 17 15 0 15 2 0 18 -23 25 -21 35 3 29 25 -6 25 0 3
26 -16 19 -17 20 -1 14 20 -7 29 11 17 35 -6 10 -5 19 1 23 7 4 7 13 0 26 -8
15 -7 19 5 19 13 0 13 5 -2 43 -9 23 -26 50 -38 59 l-20 17 23 1 c17 0 24 -7
28 -30 4 -16 10 -27 15 -25 14 9 0 49 -23 67 -21 15 -21 17 -5 24 11 4 17 15
15 28 -2 15 2 21 15 20 19 -2 22 7 6 23 -8 8 -8 13 0 17 13 9 15 46 2 46 -5 0
-12 -6 -14 -12 -3 -7 -4 7 -4 32 2 40 0 45 -22 48 l-24 4 24 12 c38 18 34 57
-9 91 -40 32 -84 39 -158 23 -37 -8 -48 -7 -55 3 -6 10 -1 20 14 32 l22 17
-28 -10 c-38 -14 -47 -13 -47 5 0 17 -45 21 -55 5 -3 -5 -13 -10 -20 -10 -8 0
2 15 23 35 49 46 38 44 -27 -4 -31 -24 -59 -37 -68 -34 -10 4 -23 -3 -34 -18
-35 -46 -29 -11 11 61 22 40 39 75 37 77 -2 1 -19 -18 -37 -45 -19 -26 -40
-53 -46 -59 -7 -7 -22 -29 -35 -49 -21 -34 -23 -35 -36 -18 -7 10 -14 25 -14
33 -1 9 -3 27 -5 41 -1 14 -4 64 -5 113 -3 105 -19 117 -20 15z m-179 -189 c0
-13 -39 -6 -45 9 -2 7 0 10 5 7 6 -3 10 -1 10 6 0 8 4 8 15 -1 8 -7 15 -16 15
-21z m732 -151 c-7 -7 -12 -8 -12 -2 0 6 3 14 7 17 3 4 9 5 12 2 2 -3 -1 -11
-7 -17z m-767 -1055 c-24 -16 -48 -17 -42 0 2 6 12 11 21 11 9 -1 16 2 16 8 0
5 5 6 12 2 7 -5 5 -11 -7 -21z"/>
<path d="M1845 501 c-10 -9 -4 -21 10 -21 12 0 15 -13 15 -56 0 -34 4 -53 10
-49 6 3 10 28 10 56 0 37 4 49 15 49 8 0 15 4 15 9 0 9 -67 20 -75 12z"/>
<path d="M340 445 c0 -44 4 -56 20 -65 14 -8 26 -8 40 0 16 9 20 21 20 65 0
30 -4 55 -10 55 -5 0 -10 -22 -10 -50 0 -43 -3 -50 -20 -50 -17 0 -20 7 -20
50 0 28 -4 50 -10 50 -5 0 -10 -25 -10 -55z"/>
<path d="M443 435 c0 -48 4 -62 12 -55 7 6 10 21 7 35 -6 34 4 31 23 -5 25
-48 42 -38 40 23 -3 66 -3 67 -15 67 -5 0 -7 -13 -5 -30 2 -16 0 -30 -5 -30
-4 0 -13 14 -20 30 -22 52 -38 37 -37 -35z"/>
<path d="M547 443 c2 -77 2 -75 11 -69 5 3 10 32 11 66 1 44 -1 60 -11 60 -10
0 -13 -16 -11 -57z"/>
<path d="M586 473 c14 -60 29 -98 39 -98 10 0 48 115 41 123 -10 9 -26 -10
-26 -31 0 -12 -4 -28 -9 -36 -7 -11 -12 -4 -21 27 -12 46 -35 59 -24 15z"/>
<path d="M681 440 c0 -33 4 -60 9 -61 42 -4 64 -1 68 10 2 7 -2 12 -9 10 -31
-4 -49 2 -49 16 0 9 9 15 24 15 29 0 46 19 19 21 -10 1 -21 1 -25 1 -3 -1 -9
5 -12 13 -4 11 2 15 24 15 17 0 30 5 30 10 0 6 -18 10 -39 10 l-39 0 -1 -60z"/>
<path d="M780 441 c0 -33 5 -63 10 -66 6 -4 10 6 10 24 0 22 4 29 14 25 8 -3
16 -14 19 -25 3 -10 13 -19 22 -19 16 0 16 2 2 24 -11 16 -12 27 -6 33 6 6 9
21 7 34 -2 20 -10 25 -40 27 l-38 3 0 -60z m60 24 c0 -8 -9 -15 -20 -15 -11 0
-20 7 -20 15 0 8 9 15 20 15 11 0 20 -7 20 -15z"/>
<path d="M886 492 c-11 -18 2 -48 27 -60 15 -7 27 -17 27 -23 0 -14 -38 -11
-43 4 -2 6 -7 9 -11 5 -13 -11 12 -45 31 -43 30 2 43 15 43 41 0 19 -7 28 -30
35 -16 6 -30 15 -30 20 0 12 17 11 42 -2 18 -10 20 -9 15 6 -4 9 -7 19 -7 21
0 8 -59 4 -64 -4z"/>
<path d="M980 434 c0 -41 4 -63 10 -59 6 3 10 33 10 66 0 33 -4 59 -10 59 -6
0 -10 -29 -10 -66z"/>
<path d="M1020 436 l0 -64 32 3 c38 3 56 25 53 65 -3 41 -22 60 -56 60 -29 0
-29 0 -29 -64z m59 22 c11 -31 2 -58 -20 -58 -15 0 -19 7 -19 40 0 45 25 56
39 18z"/>
<path d="M1137 447 c-21 -66 -22 -89 -4 -65 19 24 44 26 61 3 14 -18 15 -19
16 -2 0 32 -32 117 -44 117 -7 0 -20 -24 -29 -53z m37 -19 c-9 -14 -23 2 -17
18 4 12 8 13 14 3 4 -7 5 -17 3 -21z"/>
<path d="M1228 490 c-1 -5 -1 -35 0 -65 l4 -55 31 6 c18 3 36 9 41 14 12 12
10 78 -4 95 -14 17 -67 20 -72 5z m60 -51 c2 -30 -1 -37 -17 -42 -19 -5 -21
-1 -21 40 0 37 3 44 18 41 12 -2 18 -14 20 -39z"/>
<path d="M1372 438 c3 -57 5 -62 27 -63 28 -2 61 27 61 54 0 11 -4 31 -10 45
-8 21 -16 26 -45 26 l-36 0 3 -62z m62 25 c9 -31 0 -58 -21 -61 -18 -3 -21 2
-20 37 1 32 5 41 18 41 10 0 20 -8 23 -17z"/>
<path d="M1476 443 c3 -77 3 -77 11 -69 14 13 13 126 -1 126 -8 0 -11 -18 -10
-57z"/>
<path d="M1521 481 c-8 -15 -7 -23 5 -35 8 -9 22 -16 30 -16 8 0 14 -6 14 -13
0 -24 -13 -28 -32 -10 -21 18 -31 14 -22 -10 12 -33 68 -32 76 1 7 26 -2 42
-28 52 -25 10 -33 30 -11 30 7 0 19 -6 26 -12 10 -11 12 -9 9 7 -5 28 -53 33
-67 6z"/>
<path d="M1605 490 c3 -5 12 -10 19 -10 8 0 12 -16 12 -47 -1 -29 4 -48 12
-51 9 -3 12 8 9 43 -3 40 0 49 15 53 34 9 18 22 -28 22 -27 0 -43 -4 -39 -10z"/>
<path d="M1700 441 c0 -33 5 -63 10 -66 6 -4 10 7 10 24 0 37 12 40 30 7 13
-24 40 -43 40 -28 0 5 -6 17 -14 27 -11 15 -11 23 0 44 17 33 2 51 -42 51
l-34 0 0 -59z m60 24 c0 -8 -9 -15 -20 -15 -11 0 -20 7 -20 15 0 8 9 15 20 15
11 0 20 -7 20 -15z"/>
<path d="M1809 498 c0 -2 -2 -29 -3 -60 -2 -38 1 -58 8 -58 7 0 12 22 12 60 1
33 -3 60 -8 60 -4 0 -8 -1 -9 -2z"/>
<path d="M1946 453 c-9 -26 -16 -56 -16 -67 0 -19 0 -19 20 2 21 22 45 21 54
-4 3 -8 10 -14 15 -14 5 0 0 29 -12 65 -12 36 -26 65 -33 65 -7 0 -19 -21 -28
-47z m36 -11 c3 -11 0 -19 -8 -19 -15 0 -19 19 -7 30 9 10 10 9 15 -11z"/>
<path d="M2039 478 c-2 -13 -2 -41 1 -63 4 -34 8 -40 28 -39 38 2 42 4 42 15
0 5 -10 9 -22 7 -21 -3 -23 2 -26 50 -3 53 -17 70 -23 30z"/>
<path d="M1367 333 c-4 -3 -7 -11 -7 -17 0 -6 5 -5 12 2 6 6 9 14 7 17 -3 3
-9 2 -12 -2z"/>
<path d="M147 293 c-9 -16 -1 -118 8 -115 6 1 10 12 10 25 0 15 7 23 23 25 12
2 22 7 22 12 0 5 -10 10 -22 12 -32 4 -29 22 5 26 15 2 25 8 22 13 -7 11 -62
12 -68 2z"/>
<path d="M230 235 c0 -37 4 -65 10 -65 6 0 10 11 10 24 0 35 18 42 31 12 7
-14 18 -27 25 -30 18 -7 18 4 -1 31 -12 18 -13 23 -1 32 30 25 6 61 -40 61
l-34 0 0 -65z m61 30 c0 -5 -9 -11 -21 -13 -20 -3 -27 8 -13 22 10 9 34 3 34
-9z"/>
<path d="M347 244 c-14 -41 -16 -59 -8 -67 8 -8 11 -6 11 6 0 22 46 23 54 1 3
-8 10 -13 15 -10 11 7 -30 126 -43 126 -6 0 -19 -25 -29 -56z m37 -16 c-10
-16 -22 -7 -17 13 4 15 8 17 14 8 4 -7 5 -17 3 -21z"/>
<path d="M440 241 c0 -67 17 -92 22 -34 l4 38 17 -37 c17 -37 32 -48 39 -28 7
20 -4 120 -14 120 -5 0 -7 -13 -4 -30 6 -43 -8 -45 -27 -5 -25 51 -37 43 -37
-24z"/>
<path d="M550 281 c-16 -31 -12 -69 10 -91 11 -11 24 -20 29 -20 12 0 41 29
41 41 0 14 -16 11 -30 -6 -18 -22 -38 -2 -36 35 3 39 13 47 37 31 25 -15 37
-7 19 14 -18 21 -57 19 -70 -4z"/>
<path d="M649 258 c-5 -56 0 -90 12 -83 12 8 12 125 0 125 -5 0 -11 -19 -12
-42z"/>
<path d="M697 293 c-18 -17 -6 -51 23 -63 24 -10 28 -15 19 -27 -10 -11 -14
-11 -29 2 -23 21 -36 2 -14 -19 18 -18 32 -20 54 -6 26 16 20 51 -11 69 -32
18 -37 31 -14 31 8 0 15 -5 15 -12 0 -9 3 -9 11 -1 6 6 8 16 5 22 -8 12 -49
15 -59 4z"/>
<path d="M790 274 c-6 -14 -10 -34 -10 -45 0 -19 33 -59 48 -59 18 0 45 28 38
39 -5 8 -12 7 -23 -5 -9 -9 -19 -12 -25 -6 -14 14 -18 55 -8 72 8 13 13 13 31
2 25 -16 37 -8 19 13 -20 25 -59 19 -70 -11z"/>
<path d="M899 284 c-29 -35 -5 -114 35 -114 38 1 64 74 39 109 -17 25 -55 27
-74 5z m59 -39 c3 -38 -10 -58 -31 -49 -17 6 -24 63 -10 78 16 15 38 0 41 -29z"/>
<path d="M1080 250 c0 -38 -4 -50 -15 -50 -8 0 -15 5 -15 11 0 5 -4 8 -10 4
-12 -8 -2 -32 17 -39 28 -11 43 14 43 70 0 30 -4 54 -10 54 -5 0 -10 -22 -10
-50z"/>
<path d="M1132 288 c-14 -14 -16 -76 -4 -96 5 -7 20 -15 35 -17 47 -9 73 67
37 109 -15 19 -51 21 -68 4z m57 -30 c14 -39 -11 -77 -36 -56 -14 11 -18 60
-6 71 13 14 34 6 42 -15z"/>
<path d="M1235 280 c-7 -23 10 -50 31 -50 19 0 28 -20 14 -33 -9 -9 -15 -8
-25 6 -9 12 -15 14 -20 7 -9 -14 13 -40 34 -40 48 0 56 61 10 80 -20 9 -27 16
-20 23 7 7 15 6 26 -3 20 -17 32 -5 15 15 -18 22 -57 19 -65 -5z"/>
<path d="M1330 236 l0 -63 40 1 c22 0 40 4 40 8 0 8 -7 10 -40 12 -8 1 -16 9
-18 19 -3 13 3 17 22 17 14 0 26 5 26 10 0 6 -11 10 -25 10 -16 0 -25 6 -25
15 0 10 10 15 30 15 17 0 30 5 30 10 0 6 -18 10 -40 10 l-40 0 0 -64z"/>
<path d="M1467 293 c-2 -5 -3 -33 -2 -63 1 -51 3 -55 26 -56 36 -3 59 23 59
66 0 20 -5 41 -12 48 -13 13 -65 16 -71 5z m61 -36 c7 -35 -7 -65 -26 -60 -17
4 -19 15 -13 76 2 16 36 2 39 -16z"/>
<path d="M1570 237 l0 -63 40 0 c22 0 40 4 40 8 0 8 -7 10 -40 12 -8 1 -16 9
-18 19 -3 13 3 17 22 17 14 0 26 5 26 10 0 6 -11 10 -25 10 -16 0 -25 6 -25
15 0 10 10 15 30 15 17 0 30 5 30 10 0 6 -18 10 -40 10 l-40 0 0 -63z"/>
<path d="M1715 277 c-15 -23 -12 -71 6 -93 13 -16 50 -12 63 8 15 24 0 34 -20
14 -24 -24 -39 -4 -35 47 1 23 30 34 41 16 12 -18 22 -7 14 15 -9 24 -51 20
-69 -7z"/>
<path d="M1822 240 c-11 -33 -17 -62 -12 -65 4 -3 10 2 14 10 7 20 52 19 60
-1 4 -9 9 -15 12 -12 9 9 -30 128 -43 128 -6 0 -20 -27 -31 -60z m29 -13 c-8
-8 -11 -7 -11 4 0 20 13 34 18 19 3 -7 -1 -17 -7 -23z"/>
<path d="M1918 293 c-2 -5 -4 -33 -4 -63 l1 -55 34 0 c19 0 36 5 38 12 3 8 -3
11 -16 8 -27 -5 -40 19 -36 68 3 33 -7 50 -17 30z"/>
<path d="M2003 236 l0 -63 31 2 c35 3 56 28 56 66 0 35 -24 59 -59 59 -28 0
-28 -1 -28 -64z m57 29 c17 -20 4 -65 -18 -65 -13 0 -18 9 -20 31 -4 48 14 63
38 34z"/>
<path d="M2135 288 c-38 -105 -40 -139 -6 -97 l18 22 21 -23 c12 -13 24 -22
26 -19 2 2 -5 32 -15 67 -19 59 -34 77 -44 50z m17 -60 c-9 -9 -12 -7 -12 12
0 19 3 21 12 12 9 -9 9 -15 0 -24z"/>
<path d="M2217 293 c-16 -15 -5 -45 23 -61 32 -18 36 -27 18 -38 -6 -4 -17 1
-24 10 -8 12 -14 14 -19 6 -9 -14 13 -40 34 -40 47 0 54 53 11 78 -16 9 -30
20 -30 25 0 11 28 9 35 -3 4 -6 11 -8 16 -4 16 9 -10 34 -36 34 -12 0 -25 -3
-28 -7z"/>
</g>
</svg>
